<svg width="28" height="21" viewBox="0 0 28 21" fill="none" xmlns="http://www.w3.org/2000/svg">
<path d="M13.7216 20.7143C13.5662 20.7143 13.4124 20.6882 13.2696 20.6376C13.1268 20.587 12.9981 20.5129 12.8913 20.4199L2.3091 11.2204C0.825802 9.9897 -0.00453721 8.32501 1.8649e-05 6.59111C1.8649e-05 2.9566 3.59121 1.66688e-06 8.00409 1.66688e-06C9.0693 -0.000622807 10.1239 0.174222 11.1058 0.514243C12.0877 0.854265 12.9771 2.31695 13.7216 2.94425C14.4661 2.31695 15.3555 0.854265 16.3374 0.514243C17.3193 0.174222 18.3739 -0.000622807 19.4391 1.66688e-06C23.852 1.66688e-06 27.4432 2.9566 27.4432 6.59111C27.4455 7.45154 27.242 8.30393 26.8442 9.09959C26.4464 9.89526 25.8622 10.6186 25.125 11.2284L14.5519 20.4199C14.445 20.5129 14.3163 20.587 14.1736 20.6376C14.0308 20.6882 13.877 20.7143 13.7216 20.7143ZM8.00409 1.88324C6.87556 1.88298 5.77218 2.1578 4.83304 2.67307C3.89389 3.18834 3.161 3.921 2.72674 4.77869C2.29248 5.63639 2.17628 6.58074 2.39278 7.49273C2.60929 8.40472 3.14882 9.24353 3.94336 9.90344L3.96105 9.91844L13.7216 18.4034L23.4821 9.91844C24.0474 9.45332 24.4879 8.89579 24.7753 8.28182C25.0627 7.66785 25.1905 7.01109 25.1506 6.35392C25.1107 5.69675 24.9039 5.05377 24.5436 4.46648C24.1832 3.87918 23.6773 3.36062 23.0586 2.94425C22.4398 2.52789 21.7219 2.22297 20.9512 2.04918C20.1804 1.87539 19.374 1.83659 18.584 1.93527C17.7939 2.03396 17.0377 2.26795 16.3643 2.62213C15.6908 2.97631 15.115 3.44283 14.6741 3.99156C14.5697 4.12093 14.5115 4.22704 14.3453 4.30044C14.1791 4.37384 13.9102 5.1921 13.7216 5.1921C13.533 5.1921 13.3474 4.37384 13.1812 4.30044C13.015 4.22704 12.8734 4.12093 12.7691 3.99156C12.2485 3.34313 11.5407 2.81113 10.7091 2.44319C9.87754 2.07525 8.94812 1.88286 8.00409 1.88324Z" fill="#FA4503"/>
<path d="M27 6C27 9.31371 23.6421 12 19.5 12C15.3579 12 12 9.31371 12 6C12 2.68629 15.3579 0 19.5 0C23.6421 0 27 2.68629 27 6Z" fill="#FA4503"/>
<path d="M15.5 6C15.5 9.31371 12.1421 12 8 12C3.85786 12 0.5 9.31371 0.5 6C0.5 2.68629 3.85786 0 8 0C12.1421 0 15.5 2.68629 15.5 6Z" fill="#FA4503"/>
<path d="M27 6.5C27 9.53757 17.866 18.5 14 18.5C10.134 18.5 5 14.5376 5 11.5C5 8.46243 16.134 1 20 1C23.866 1 27 3.46243 27 6.5Z" fill="#FA4503"/>
</svg>
