<svg width="28" height="21" viewBox="0 0 28 21" fill="none" xmlns="http://www.w3.org/2000/svg">
<path d="M3.94336 9.90344C3.84775 9.82402 3.75582 9.74202 3.66771 9.65761C3.6562 9.64657 3.64475 9.6355 3.63336 9.62439C3.07179 9.0762 2.66926 8.42901 2.45753 7.73216C2.43347 7.65297 2.41187 7.57313 2.39278 7.49273C2.32725 7.2167 2.2922 6.93771 2.28722 6.65905C2.28685 6.63841 2.28665 6.61776 2.28661 6.59712C2.28661 6.59512 2.28661 6.59311 2.2866 6.59111C2.28658 6.50755 2.28925 6.42405 2.29462 6.34069C2.29502 6.33438 2.29545 6.32806 2.29588 6.32175C2.31632 6.02673 2.37048 5.7336 2.45787 5.4463L1.20987 4.01068L0.864456 3.61334C0.829557 3.66985 0.795618 3.72683 0.762658 3.78425C0.671627 3.94286 0.58806 4.10491 0.512333 4.27011C0.509992 4.27522 0.507659 4.28033 0.505334 4.28544C0.178703 5.00341 1.8649e-05 5.78039 1.8649e-05 6.59111C-4.6304e-05 6.61583 5.84462e-05 6.64054 0.000332372 6.66523C0.00485963 7.07331 0.0555976 7.47725 0.150166 7.87229C0.161702 7.92048 0.173891 7.96854 0.186727 8.01646C0.508872 9.21899 1.2391 10.3326 2.3091 11.2204L2.60535 11.478L2.69897 11.3703L3.94336 9.90344ZM3.94336 9.90344L3.28489 10.6963L3.96105 9.91844L3.94336 9.90344ZM24.9864 5.4451C25.0735 5.73133 25.1279 6.02439 25.1484 6.32048C25.1489 6.32678 25.1493 6.33308 25.1497 6.33938C25.15 6.34423 25.1503 6.34907 25.1506 6.35392C25.1554 6.43302 25.1578 6.5121 25.1577 6.59111C25.1577 6.59317 25.1577 6.59523 25.1577 6.59728C25.1577 6.61727 25.1575 6.63724 25.1571 6.65721C25.1485 7.14947 25.0461 7.63783 24.8534 8.10438C24.8288 8.1639 24.8028 8.22305 24.7753 8.28182C24.5449 8.77392 24.2162 9.22976 23.8038 9.63083C23.7916 9.64268 23.7793 9.65449 23.767 9.66625C23.6759 9.75301 23.5809 9.83714 23.4821 9.91844L22.7939 10.5167L22.7808 10.5282L21.2401 11.8675L21.2308 11.8755L20.4936 12.5164L19.9632 12.9775L19.5792 13.3113L19.4391 13.4331L19.4312 13.4399L18.6731 14.099L18.127 14.5737L17.5265 15.0957L17.4991 15.1196L14.2133 17.9759L24.9864 5.4451ZM24.9864 5.4451L26.5787 3.61335M24.9864 5.4451L26.5787 3.61335M26.5787 3.61335C26.71 3.82593 26.8277 4.04512 26.9309 4.27014C26.9332 4.27523 26.9355 4.28033 26.9378 4.28544C27.2137 4.89176 27.384 5.54018 27.4303 6.21547C27.4388 6.3398 27.4432 6.46505 27.4432 6.59111C27.4432 6.61515 27.4431 6.63919 27.4429 6.66322C27.434 7.49913 27.2308 8.32616 26.8442 9.09959C26.8239 9.14026 26.8031 9.18073 26.7818 9.22101C26.3863 9.9689 25.8246 10.6498 25.125 11.2284L26.5787 3.61335ZM16.3374 0.514243C16.7054 0.386795 17.0837 0.282554 17.4689 0.20206L13.722 2.94372C13.7279 2.93881 13.7337 2.93399 13.7396 2.92898C13.7654 2.90683 13.7914 2.88371 13.8175 2.85969C13.878 2.80412 13.9394 2.74375 14.0018 2.67957C14.1804 2.49553 14.3664 2.28019 14.559 2.05715C14.8655 1.70221 15.1888 1.32777 15.5264 1.02896C15.5699 0.990482 15.6136 0.95326 15.6575 0.917495C15.7434 0.84758 15.8302 0.783232 15.9178 0.725968C15.9343 0.715179 15.9509 0.704642 15.9674 0.694366C16.0709 0.630205 16.1755 0.576243 16.2812 0.534949C16.2999 0.527646 16.3186 0.52074 16.3374 0.514243Z" fill="#F34515" stroke="#FF0D0D" stroke-width="56"/>
<path d="M27 6C27 9.31371 23.6421 12 19.5 12C15.3579 12 12 9.31371 12 6C12 2.68629 15.3579 0 19.5 0C23.6421 0 27 2.68629 27 6Z" fill="#FF0D0D"/>
<path d="M15.5 6C15.5 9.31371 12.1421 12 8 12C3.85786 12 0.5 9.31371 0.5 6C0.5 2.68629 3.85786 0 8 0C12.1421 0 15.5 2.68629 15.5 6Z" fill="#FF0D0D"/>
<path d="M27 6.5C27 9.53757 17.866 18.5 14 18.5C10.134 18.5 5 14.5376 5 11.5C5 8.46243 16.134 1 20 1C23.866 1 27 3.46243 27 6.5Z" fill="#FF0D0D"/>
</svg>
