<svg width="99" height="87" viewBox="0 0 99 87" fill="none" xmlns="http://www.w3.org/2000/svg">
<path fill-rule="evenodd" clip-rule="evenodd" d="M92.354 1.07934L66.7508 17.0167V6.75148C66.7508 3.63975 63.5046 1.74575 60.8822 3.32746L2.29627 38.6637C-0.326147 40.2454 -0.379187 44.1294 2.20037 45.6852L60.7863 81.0214C63.4081 82.6028 66.7508 80.5867 66.7508 77.4239V69.0443L92.5879 85.3549C95.2573 87.0401 98.6032 85.2966 98.6032 82.2203L98.6038 4.7112C98.6038 1.51089 95.013 -0.575812 92.354 1.07934ZM16.5401 45.6692L59.4311 69.9258L59.4311 14.5028L16.4931 38.786C13.8058 40.3057 13.832 44.1376 16.5401 45.6692Z" fill="#FA4503"/>
</svg>
